<svg width="200" height="200" viewBox="0 0 200 200" fill="none" xmlns="http://www.w3.org/2000/svg">
<path d="M92.2128 82.7007C97.4803 73.7664 110.52 73.7664 115.787 82.7007L164.118 164.675C169.429 173.683 162.867 185 152.331 185H55.6691C45.1335 185 38.5705 173.683 43.8818 164.675L92.2128 82.7007Z" fill="#F1F1F1"/>
<path d="M102.367 63.5302L96.273 41.7697C96.0945 41.132 96.5738 40.5 97.236 40.5H102.657C103.134 40.5 103.545 40.1624 103.638 39.6939L107.492 20.1951C107.706 19.111 109.262 19.1243 109.457 20.2119L113.348 41.8228C113.458 42.4362 112.987 43 112.364 43H109.334C108.86 43 108.45 43.3336 108.355 43.7985L104.309 63.4621C104.098 64.4892 102.65 64.54 102.367 63.5302Z" fill="#E3E3E3"/>
<path d="M89.9818 65.7501L79.8577 60.0739C79.2796 59.7498 79.1722 58.9683 79.6417 58.5026L81.364 56.7942C81.7034 56.4576 81.7551 55.9296 81.4873 55.5344L76.0808 47.5555C75.4609 46.6406 76.5766 45.5526 77.4882 46.1828L86.3654 52.3201C86.8783 52.6746 86.9433 53.4029 86.5013 53.8414L85.7686 54.5682C85.4312 54.9028 85.3778 55.4268 85.6409 55.8216L91.3134 64.3338C91.8951 65.2067 90.9001 66.2649 89.9818 65.7501Z" fill="#E3E3E3"/>
<path d="M121.625 71L116.453 64.8444C115.796 64.062 116.597 62.9138 117.558 63.2605L123.207 65.298C123.994 65.5818 124.761 64.8317 124.494 64.0388L122.32 57.57C122.048 56.7587 122.854 56.0021 123.646 56.3257L127.72 57.9895C128.576 58.3392 129.407 57.4394 128.991 56.6137L126.679 52.027C126.23 51.1369 127.218 50.2101 128.078 50.7141L136.243 55.5" stroke="#999999" stroke-width="4" stroke-linecap="round"/>
<path d="M65.9242 75.9154L72.6153 70.6699C73.1986 70.2126 74.0616 70.5283 74.214 71.2545L75.1333 75.6367C75.2991 76.4269 76.2853 76.7078 76.8401 76.1229L78.4279 74.4487C78.9827 73.8638 79.9689 74.1447 80.1347 74.935L80.4609 76.4898" stroke="#EEF0F6" stroke-width="4" stroke-linecap="round"/>
<path d="M143.351 77.7095L135.78 73.8126C135.12 73.4731 134.334 73.945 134.322 74.6869L134.255 79.1624C134.242 79.9696 133.328 80.4306 132.672 79.9603L130.792 78.613C130.136 78.1427 129.222 78.6037 129.21 79.4109L129.186 80.9989" stroke="#E3E3E3" stroke-width="4" stroke-linecap="round"/>
<path d="M76.8675 148.64V144.104L85.4635 131.84H91.4835V143.88H93.6395V148.64H91.4835V152H85.9395V148.64H76.8675ZM86.3595 138.028L82.4955 143.88H86.3595V138.028ZM95.8908 141.472C95.8908 138.261 96.5442 135.732 97.8508 133.884C99.1575 132.036 101.211 131.112 104.011 131.112C106.811 131.112 108.864 132.036 110.171 133.884C111.496 135.732 112.159 138.261 112.159 141.472C112.159 144.72 111.505 147.268 110.199 149.116C108.892 150.964 106.829 151.888 104.011 151.888C101.192 151.888 99.1295 150.964 97.8228 149.116C96.5348 147.268 95.8908 144.72 95.8908 141.472ZM106.727 141.472C106.727 139.792 106.549 138.513 106.195 137.636C105.84 136.74 105.112 136.292 104.011 136.292C102.909 136.292 102.181 136.74 101.827 137.636C101.472 138.513 101.295 139.792 101.295 141.472C101.295 143.189 101.463 144.496 101.799 145.392C102.153 146.269 102.891 146.708 104.011 146.708C105.131 146.708 105.859 146.269 106.195 145.392C106.549 144.496 106.727 143.189 106.727 141.472ZM114.629 148.64V144.104L123.225 131.84H129.245V143.88H131.401V148.64H129.245V152H123.701V148.64H114.629ZM124.121 138.028L120.257 143.88H124.121V138.028Z" fill="#999999"/>
</svg>
