<svg width="80" height="80" viewBox="0 0 80 80" fill="none" xmlns="http://www.w3.org/2000/svg">
<path fill-rule="evenodd" clip-rule="evenodd" d="M62.3926 66.2932L37.3926 40.0432L40.1081 37.457L65.1081 63.707L62.3926 66.2932Z" fill="#BCC0C9"/>
<path d="M60 38.75C60 51.1764 49.9264 61.25 37.5 61.25C25.0736 61.25 15 51.1764 15 38.75C15 26.3236 25.0736 16.25 37.5 16.25C49.9264 16.25 60 26.3236 60 38.75Z" fill="#F6F7FB"/>
<path fill-rule="evenodd" clip-rule="evenodd" d="M37.5 57.5C47.8553 57.5 56.25 49.1053 56.25 38.75C56.25 28.3947 47.8553 20 37.5 20C27.1447 20 18.75 28.3947 18.75 38.75C18.75 49.1053 27.1447 57.5 37.5 57.5ZM37.5 61.25C49.9264 61.25 60 51.1764 60 38.75C60 26.3236 49.9264 16.25 37.5 16.25C25.0736 16.25 15 26.3236 15 38.75C15 51.1764 25.0736 61.25 37.5 61.25Z" fill="#BCC0C9"/>
</svg>
