<svg width="24" height="24" viewBox="0 0 24 24" fill="none" xmlns="http://www.w3.org/2000/svg">
<path fill-rule="evenodd" clip-rule="evenodd" d="M16.3842 18.1988C12.8718 20.6773 7.98228 20.345 4.83916 17.2018C1.32445 13.6871 1.32445 7.98865 4.83916 4.47393C8.35388 0.959211 14.0524 0.959211 17.5671 4.47393C20.973 7.87989 21.0784 13.3366 17.8833 16.8694L21.4029 20.389C21.7934 20.7796 21.7934 21.4127 21.4029 21.8033C21.0123 22.1938 20.3792 22.1938 19.9887 21.8033L16.3842 18.1988ZM15.6786 16.2209C12.9284 18.5127 8.83406 18.3683 6.25338 15.7876C3.51971 13.054 3.51971 8.62181 6.25338 5.88814C8.98705 3.15447 13.4192 3.15447 16.1529 5.88814C18.8865 8.62181 18.8865 13.054 16.1529 15.7876C16.0799 15.8607 16.0056 15.9317 15.9302 16.0008C15.8647 16.0411 15.8028 16.0896 15.746 16.1464C15.7221 16.1704 15.6996 16.1952 15.6786 16.2209Z" fill="#CDD1DA"/>
</svg>
