<svg width="16" height="16" viewBox="0 0 16 16" fill="none" xmlns="http://www.w3.org/2000/svg">
<g clip-path="url(#clip0_282_47455)">
<rect width="16" height="16" fill="white"/>
<path fill-rule="evenodd" clip-rule="evenodd" d="M10.5969 6.04832C9.52794 6.04832 8.66144 5.25401 8.66144 4.2742C8.66144 3.29429 9.52796 2.5 10.5969 2.5C11.6658 2.5 12.5323 3.29431 12.5323 4.2742C12.5323 5.25403 11.6658 6.04832 10.5969 6.04832ZM10.5969 5.69353C11.452 5.69353 12.1453 5.05806 12.1453 4.2742C12.1453 3.49026 11.452 2.85486 10.5969 2.85486C9.74173 2.85486 9.04856 3.49026 9.04856 4.2742C9.04856 5.05806 9.74173 5.69353 10.5969 5.69353ZM5.1775 7.8226C4.10859 7.8226 3.24209 7.02823 3.24209 6.0484C3.24209 5.06857 4.10861 4.27428 5.1775 4.27428C6.24649 4.27428 7.11299 5.06858 7.11299 6.0484C7.11299 7.02823 6.24647 7.8226 5.1775 7.8226ZM5.1775 7.46773C6.0327 7.46773 6.72586 6.83225 6.72586 6.0484C6.72586 5.26454 6.0327 4.62906 5.1775 4.62906C4.32238 4.62906 3.62913 5.26454 3.62913 6.0484C3.62913 6.83225 4.32238 7.46773 5.1775 7.46773ZM8.85481 13.3226C8.85481 13.4206 8.76817 13.5 8.66129 13.5C8.5544 13.5 8.46776 13.4206 8.46776 13.3226V12.6126C8.46776 10.9471 6.99457 9.5967 5.17745 9.5967C3.36007 9.5967 1.88713 10.9468 1.88713 12.6126V13.3226C1.88713 13.4206 1.8005 13.5 1.69361 13.5C1.58672 13.5 1.5 13.4206 1.5 13.3226V12.6126C1.5 10.751 3.14621 9.24195 5.17731 9.24195C7.20822 9.24195 8.85462 10.7511 8.85462 12.6126L8.85481 13.3226ZM8.332 8.65041C8.25441 8.71786 8.13195 8.71494 8.05836 8.64389C7.98479 8.57276 7.98797 8.46051 8.06556 8.39306C8.74407 7.80278 9.64187 7.46771 10.5967 7.46771C12.6275 7.46771 14.274 8.97681 14.274 10.838V11.5483C14.274 11.6463 14.1873 11.7257 14.0804 11.7257C13.9735 11.7257 13.8868 11.6463 13.8868 11.5483V10.838C13.8868 9.17283 12.4137 7.82265 10.5965 7.82265C9.74182 7.82265 8.9391 8.1222 8.33178 8.65049L8.332 8.65041Z" fill="#999999" stroke="#999999" stroke-width="0.5"/>
</g>
<defs>
<clipPath id="clip0_282_47455">
<rect width="16" height="16" fill="white"/>
</clipPath>
</defs>
</svg>
