<svg width="16" height="16" viewBox="0 0 16 16" fill="none" xmlns="http://www.w3.org/2000/svg">
<path fill-rule="evenodd" clip-rule="evenodd" d="M4 3C2.89543 3 2 3.89543 2 5V9C2 10.1046 2.89543 11 4 11H6.25V12.5C6.25 12.8033 6.43273 13.0768 6.71299 13.1929C6.99324 13.309 7.31583 13.2448 7.53033 13.0303L9.56066 11H12C13.1046 11 14 10.1046 14 9V5C14 3.89543 13.1046 3 12 3H4Z" fill="white"/>
<path d="M6.25 11H6.75C6.75 10.7239 6.52614 10.5 6.25 10.5V11ZM6.71299 13.1929L6.90433 12.731H6.90433L6.71299 13.1929ZM9.56066 11V10.5C9.42805 10.5 9.30088 10.5527 9.20711 10.6464L9.56066 11ZM2.5 5C2.5 4.17157 3.17157 3.5 4 3.5V2.5C2.61929 2.5 1.5 3.61929 1.5 5H2.5ZM2.5 9V5H1.5V9H2.5ZM4 10.5C3.17157 10.5 2.5 9.82843 2.5 9H1.5C1.5 10.3807 2.61929 11.5 4 11.5V10.5ZM6.25 10.5H4V11.5H6.25V10.5ZM6.75 12.5V11H5.75V12.5H6.75ZM6.90433 12.731C6.81091 12.6923 6.75 12.6011 6.75 12.5H5.75C5.75 13.0056 6.05455 13.4614 6.52165 13.6548L6.90433 12.731ZM7.17678 12.6768C7.10528 12.7483 6.99775 12.7697 6.90433 12.731L6.52165 13.6548C6.98874 13.8483 7.52639 13.7414 7.88388 13.3839L7.17678 12.6768ZM9.20711 10.6464L7.17678 12.6768L7.88388 13.3839L9.91421 11.3536L9.20711 10.6464ZM12 10.5H9.56066V11.5H12V10.5ZM13.5 9C13.5 9.82843 12.8284 10.5 12 10.5V11.5C13.3807 11.5 14.5 10.3807 14.5 9H13.5ZM13.5 5V9H14.5V5H13.5ZM12 3.5C12.8284 3.5 13.5 4.17157 13.5 5H14.5C14.5 3.61929 13.3807 2.5 12 2.5V3.5ZM4 3.5H12V2.5H4V3.5Z" fill="#999999"/>
<circle cx="5" cy="7" r="1" fill="#999999"/>
<circle cx="8" cy="7" r="1" fill="#999999"/>
<circle cx="11" cy="7" r="1" fill="#999999"/>
</svg>
