<svg width="200" height="200" viewBox="0 0 200 200" fill="none" xmlns="http://www.w3.org/2000/svg">
<path d="M92.2128 82.7007C97.4803 73.7664 110.52 73.7664 115.787 82.7007L164.118 164.675C169.429 173.683 162.867 185 152.331 185H55.6691C45.1335 185 38.5705 173.683 43.8818 164.675L92.2128 82.7007Z" fill="#F1F1F1"/>
<path d="M102.367 63.5302L96.273 41.7697C96.0945 41.132 96.5738 40.5 97.236 40.5H102.657C103.134 40.5 103.545 40.1624 103.638 39.6939L107.492 20.1951C107.706 19.111 109.262 19.1243 109.457 20.2119L113.348 41.8228C113.458 42.4362 112.987 43 112.364 43H109.334C108.86 43 108.45 43.3336 108.355 43.7985L104.309 63.4621C104.098 64.4892 102.65 64.54 102.367 63.5302Z" fill="#E3E3E3"/>
<path d="M89.9818 65.7501L79.8577 60.0739C79.2796 59.7498 79.1722 58.9683 79.6417 58.5026L81.364 56.7942C81.7034 56.4576 81.7551 55.9296 81.4873 55.5344L76.0808 47.5555C75.4609 46.6406 76.5766 45.5526 77.4882 46.1828L86.3654 52.3201C86.8783 52.6746 86.9433 53.4029 86.5013 53.8414L85.7686 54.5682C85.4312 54.9028 85.3778 55.4268 85.6409 55.8216L91.3134 64.3338C91.8951 65.2067 90.9001 66.2649 89.9818 65.7501Z" fill="#E3E3E3"/>
<path d="M121.625 71L116.453 64.8444C115.796 64.062 116.597 62.9138 117.558 63.2605L123.207 65.298C123.994 65.5818 124.761 64.8317 124.494 64.0388L122.32 57.57C122.048 56.7587 122.854 56.0021 123.646 56.3257L127.72 57.9895C128.576 58.3392 129.407 57.4394 128.991 56.6137L126.679 52.027C126.23 51.1369 127.218 50.2101 128.078 50.7141L136.243 55.5" stroke="#999999" stroke-width="4" stroke-linecap="round"/>
<path d="M65.9242 75.9154L72.6153 70.6699C73.1986 70.2126 74.0616 70.5283 74.214 71.2545L75.1333 75.6367C75.2991 76.4269 76.2853 76.7078 76.8401 76.1229L78.4279 74.4487C78.9827 73.8638 79.9689 74.1447 80.1347 74.935L80.4609 76.4898" stroke="#EEF0F6" stroke-width="4" stroke-linecap="round"/>
<path d="M143.351 77.7095L135.78 73.8126C135.12 73.4731 134.334 73.945 134.322 74.6869L134.255 79.1624C134.242 79.9696 133.328 80.4306 132.672 79.9603L130.792 78.613C130.136 78.1427 129.222 78.6037 129.21 79.4109L129.186 80.9989" stroke="#E3E3E3" stroke-width="4" stroke-linecap="round"/>
<path d="M77.346 148.64V144.104L85.942 131.84H91.962V143.88H94.118V148.64H91.962V152H86.418V148.64H77.346ZM86.838 138.028L82.974 143.88H86.838V138.028ZM96.3693 141.472C96.3693 138.261 97.0227 135.732 98.3293 133.884C99.636 132.036 101.689 131.112 104.489 131.112C107.289 131.112 109.343 132.036 110.649 133.884C111.975 135.732 112.637 138.261 112.637 141.472C112.637 144.72 111.984 147.268 110.677 149.116C109.371 150.964 107.308 151.888 104.489 151.888C101.671 151.888 99.608 150.964 98.3013 149.116C97.0133 147.268 96.3693 144.72 96.3693 141.472ZM107.205 141.472C107.205 139.792 107.028 138.513 106.673 137.636C106.319 136.74 105.591 136.292 104.489 136.292C103.388 136.292 102.66 136.74 102.305 137.636C101.951 138.513 101.773 139.792 101.773 141.472C101.773 143.189 101.941 144.496 102.277 145.392C102.632 146.269 103.369 146.708 104.489 146.708C105.609 146.708 106.337 146.269 106.673 145.392C107.028 144.496 107.205 143.189 107.205 141.472ZM114.772 141.472C114.772 138.261 115.425 135.732 116.732 133.884C118.038 132.036 120.092 131.112 122.892 131.112C125.692 131.112 127.745 132.036 129.052 133.884C130.377 135.732 131.04 138.261 131.04 141.472C131.04 144.72 130.386 147.268 129.08 149.116C127.773 150.964 125.71 151.888 122.892 151.888C120.073 151.888 118.01 150.964 116.704 149.116C115.416 147.268 114.772 144.72 114.772 141.472ZM125.608 141.472C125.608 139.792 125.43 138.513 125.076 137.636C124.721 136.74 123.993 136.292 122.892 136.292C121.79 136.292 121.062 136.74 120.708 137.636C120.353 138.513 120.176 139.792 120.176 141.472C120.176 143.189 120.344 144.496 120.68 145.392C121.034 146.269 121.772 146.708 122.892 146.708C124.012 146.708 124.74 146.269 125.076 145.392C125.43 144.496 125.608 143.189 125.608 141.472Z" fill="#999999"/>
</svg>
