<svg width="32" height="32" viewBox="0 0 32 32" fill="none" xmlns="http://www.w3.org/2000/svg">
<circle cx="16" cy="16" r="16" fill="#F6F7FB"/>
<path fill-rule="evenodd" clip-rule="evenodd" d="M14.5455 8.45455C14.5455 7.65122 15.1967 7 16 7C16.8033 7 17.4545 7.65122 17.4545 8.45455V8.63873C19.964 9.28461 21.8182 11.5626 21.8182 14.2736V17.4958C21.8182 17.761 21.9235 18.0153 22.1111 18.2029L22.9798 19.0716C23.0973 19.1891 23.2488 19.2631 23.4005 19.3372C23.491 19.3815 23.5815 19.4257 23.6649 19.4792C23.8665 19.6085 24 19.8346 24 20.0918C24 20.4935 23.6744 20.8191 23.2727 20.8191H8.72727C8.32561 20.8191 8 20.4935 8 20.0918C8 19.8346 8.13353 19.6085 8.33506 19.4792C8.41848 19.4257 8.50903 19.3815 8.59953 19.3372C8.7512 19.2631 8.90271 19.1891 9.02017 19.0716L9.88892 18.2029C10.0765 18.0153 10.1818 17.761 10.1818 17.4958V14.2736C10.1818 11.5626 12.036 9.28461 14.5455 8.63873V8.45455ZM18.1818 22.2727C18.1818 23.4777 17.205 24.4545 16 24.4545C14.795 24.4545 13.8182 23.4777 13.8182 22.2727L18.1818 22.2727Z" fill="#FFB321"/>
</svg>
