<svg width="24" height="24" viewBox="0 0 24 24" fill="none" xmlns="http://www.w3.org/2000/svg">
<path fill-rule="evenodd" clip-rule="evenodd" d="M10 2C10 0.895431 10.8954 0 12 0C13.1046 0 14 0.895431 14 2V2.25203C17.4505 3.14012 20 6.27232 20 10V14.5858C20 14.851 20.1054 15.1054 20.2929 15.2929L21.7071 16.7071C21.8579 16.8579 22.0589 16.941 22.2581 17.0233C22.3066 17.0434 22.355 17.0634 22.4026 17.0843C22.7544 17.2392 23 17.5909 23 18C23 18.5523 22.5523 19 22 19H2C1.44772 19 1 18.5523 1 18C1 17.5909 1.24563 17.2392 1.59744 17.0843C1.64499 17.0634 1.6934 17.0434 1.74192 17.0233C1.94109 16.941 2.14209 16.8579 2.29289 16.7071L3.70711 15.2929C3.89464 15.1054 4 14.851 4 14.5858V10C4 6.27232 6.54955 3.14012 10 2.25203V2ZM15 21C15 22.6569 13.6569 24 12 24C10.3431 24 9 22.6569 9 21H15Z" fill="#CDD1DA"/>
</svg>
