<svg width="200" height="200" viewBox="0 0 200 200" fill="none" xmlns="http://www.w3.org/2000/svg">
<path d="M92.2128 82.7007C97.4803 73.7664 110.52 73.7664 115.787 82.7007L164.118 164.675C169.429 173.683 162.867 185 152.331 185H55.6691C45.1335 185 38.5705 173.683 43.8818 164.675L92.2128 82.7007Z" fill="#F1F1F1"/>
<path d="M102.367 63.5302L96.273 41.7697C96.0945 41.132 96.5738 40.5 97.236 40.5H102.657C103.134 40.5 103.545 40.1624 103.638 39.6939L107.492 20.1951C107.706 19.111 109.262 19.1243 109.457 20.2119L113.348 41.8228C113.458 42.4362 112.987 43 112.364 43H109.334C108.86 43 108.45 43.3336 108.355 43.7985L104.309 63.4621C104.098 64.4892 102.65 64.54 102.367 63.5302Z" fill="#E3E3E3"/>
<path d="M89.9818 65.7501L79.8577 60.0739C79.2796 59.7498 79.1722 58.9683 79.6417 58.5026L81.364 56.7942C81.7034 56.4576 81.7551 55.9296 81.4873 55.5344L76.0808 47.5555C75.4609 46.6406 76.5766 45.5526 77.4882 46.1828L86.3654 52.3201C86.8783 52.6746 86.9433 53.4029 86.5013 53.8414L85.7686 54.5682C85.4312 54.9028 85.3778 55.4268 85.6409 55.8216L91.3134 64.3338C91.8951 65.2067 90.9001 66.2649 89.9818 65.7501Z" fill="#E3E3E3"/>
<path d="M121.625 71L116.453 64.8444C115.796 64.062 116.597 62.9138 117.558 63.2605L123.207 65.298C123.994 65.5818 124.761 64.8317 124.494 64.0388L122.32 57.57C122.048 56.7587 122.854 56.0021 123.646 56.3257L127.72 57.9895C128.576 58.3392 129.407 57.4394 128.991 56.6137L126.679 52.027C126.23 51.1369 127.218 50.2101 128.078 50.7141L136.243 55.5" stroke="#999999" stroke-width="4" stroke-linecap="round"/>
<path d="M65.9242 75.9154L72.6153 70.6699C73.1986 70.2126 74.0616 70.5283 74.214 71.2545L75.1333 75.6367C75.2991 76.4269 76.2853 76.7078 76.8401 76.1229L78.4279 74.4487C78.9827 73.8638 79.9689 74.1447 80.1347 74.935L80.4609 76.4898" stroke="#EEF0F6" stroke-width="4" stroke-linecap="round"/>
<path d="M143.351 77.7095L135.78 73.8126C135.12 73.4731 134.334 73.945 134.322 74.6869L134.255 79.1624C134.242 79.9696 133.328 80.4306 132.672 79.9603L130.792 78.613C130.136 78.1427 129.222 78.6037 129.21 79.4109L129.186 80.9989" stroke="#E3E3E3" stroke-width="4" stroke-linecap="round"/>
<path d="M78.0022 148.64V144.104L86.5982 131.84H92.6182V143.88H94.7742V148.64H92.6182V152H87.0742V148.64H78.0022ZM87.4942 138.028L83.6302 143.88H87.4942V138.028ZM97.0256 141.472C97.0256 138.261 97.6789 135.732 98.9856 133.884C100.292 132.036 102.346 131.112 105.146 131.112C107.946 131.112 109.999 132.036 111.306 133.884C112.631 135.732 113.294 138.261 113.294 141.472C113.294 144.72 112.64 147.268 111.334 149.116C110.027 150.964 107.964 151.888 105.146 151.888C102.327 151.888 100.264 150.964 98.9576 149.116C97.6696 147.268 97.0256 144.72 97.0256 141.472ZM107.862 141.472C107.862 139.792 107.684 138.513 107.33 137.636C106.975 136.74 106.247 136.292 105.146 136.292C104.044 136.292 103.316 136.74 102.962 137.636C102.607 138.513 102.43 139.792 102.43 141.472C102.43 143.189 102.598 144.496 102.934 145.392C103.288 146.269 104.026 146.708 105.146 146.708C106.266 146.708 106.994 146.269 107.33 145.392C107.684 144.496 107.862 143.189 107.862 141.472ZM115.68 137.636C115.755 135.527 116.408 133.912 117.64 132.792C118.872 131.653 120.589 131.084 122.792 131.084C124.229 131.084 125.452 131.336 126.46 131.84C127.487 132.325 128.261 132.997 128.784 133.856C129.307 134.696 129.568 135.648 129.568 136.712C129.568 137.981 129.26 138.999 128.644 139.764C128.028 140.511 127.328 141.015 126.544 141.276V141.388C128.803 142.228 129.932 143.833 129.932 146.204C129.932 147.38 129.661 148.416 129.12 149.312C128.579 150.208 127.795 150.908 126.768 151.412C125.741 151.916 124.519 152.168 123.1 152.168C120.767 152.168 118.919 151.608 117.556 150.488C116.212 149.349 115.512 147.613 115.456 145.28H120.804C120.767 146.027 120.925 146.605 121.28 147.016C121.635 147.427 122.167 147.632 122.876 147.632C123.417 147.632 123.837 147.464 124.136 147.128C124.453 146.792 124.612 146.344 124.612 145.784C124.612 145.075 124.379 144.552 123.912 144.216C123.464 143.88 122.727 143.712 121.7 143.712H120.72V139.26H121.672C122.381 139.279 122.979 139.167 123.464 138.924C123.968 138.663 124.22 138.149 124.22 137.384C124.22 136.805 124.08 136.376 123.8 136.096C123.52 135.797 123.137 135.648 122.652 135.648C122.111 135.648 121.709 135.844 121.448 136.236C121.205 136.609 121.065 137.076 121.028 137.636H115.68Z" fill="#999999"/>
</svg>
