<svg width="72" height="72" viewBox="0 0 72 72" fill="none" xmlns="http://www.w3.org/2000/svg">
<rect x="8" y="8" width="56" height="53" rx="16" fill="#004EFF"/>
<path d="M37.8245 64.937C37.1176 66.5113 34.8824 66.5113 34.1755 64.937L31.2038 58.3193C30.6096 56.996 31.5777 55.5 33.0283 55.5H38.9717C40.4223 55.5 41.3904 56.996 40.7962 58.3193L37.8245 64.937Z" fill="#004EFF"/>
<path d="M30 40C30 39.4477 30.4477 39 31 39H41C41.5523 39 42 39.4477 42 40C42 40.5523 41.5523 41 41 41H31C30.4477 41 30 40.5523 30 40Z" fill="white"/>
<circle cx="27" cy="32" r="2" fill="white"/>
<circle cx="45" cy="32" r="2" fill="white"/>
</svg>
