<svg width="200" height="200" viewBox="0 0 200 200" fill="none" xmlns="http://www.w3.org/2000/svg">
<g clip-path="url(#clip0_282_37549)">
<path d="M61.25 60.3531C61.25 58.2089 59.5151 56.4707 57.375 56.4707C55.2349 56.4707 53.5 58.2089 53.5 60.3531V167.118C53.5 169.262 55.2349 171 57.375 171C59.5151 171 61.25 169.262 61.25 167.118V60.3531Z" fill="#E3E3E3"/>
<path d="M144.562 60.3531C144.562 58.2089 142.828 56.4707 140.688 56.4707C138.547 56.4707 136.812 58.2089 136.812 60.3531V167.118C136.812 169.262 138.547 171 140.688 171C142.828 171 144.562 169.262 144.562 167.118V60.3531Z" fill="#E3E3E3"/>
<path d="M152.312 112.765H47.6875C42.3372 112.765 38 117.11 38 122.471V134.118C38 139.478 42.3372 143.823 47.6875 143.823H152.312C157.663 143.823 162 139.478 162 134.118V122.471C162 117.11 157.663 112.765 152.312 112.765Z" fill="#D9D9D9"/>
<path d="M53.9397 112.763H68.6512L59.5449 143.822H44.8335L53.9397 112.763Z" fill="#999999"/>
<path d="M81.4329 112.763H96.1443L87.0381 143.822H72.3267L81.4329 112.763Z" fill="#999999"/>
<path d="M108.926 112.763H123.638L114.531 143.822H99.8198L108.926 112.763Z" fill="#999999"/>
<path d="M136.419 112.763H151.131L142.024 143.822H127.313L136.419 112.763Z" fill="#999999"/>
<path d="M152.312 70.0586H47.6875C42.3372 70.0586 38 74.4041 38 79.7645V91.4115C38 96.7719 42.3372 101.117 47.6875 101.117H152.312C157.663 101.117 162 96.7719 162 91.4115V79.7645C162 74.4041 157.663 70.0586 152.312 70.0586Z" fill="#D9D9D9"/>
<path d="M53.9397 70.0566H68.6512L59.5449 101.115H44.8335L53.9397 70.0566Z" fill="#999999"/>
<path d="M81.4329 70.0566H96.1443L87.0381 101.115H72.3267L81.4329 70.0566Z" fill="#999999"/>
<path d="M108.926 70.0566H123.638L114.531 101.115H99.8198L108.926 70.0566Z" fill="#999999"/>
<path d="M136.419 70.0566H151.131L142.024 101.115H127.313L136.419 70.0566Z" fill="#999999"/>
<path d="M140.688 39C142.743 39 144.714 39.8181 146.168 41.2742C147.621 42.7304 148.438 44.7054 148.438 46.7647V60.3529H132.938V46.7647C132.938 44.7054 133.754 42.7304 135.207 41.2742C136.661 39.8181 138.632 39 140.688 39V39Z" fill="#999999"/>
<path d="M57.375 39C59.4304 39 61.4017 39.8181 62.8551 41.2742C64.3085 42.7304 65.125 44.7054 65.125 46.7647V60.3529H49.625V46.7647C49.625 44.7054 50.4415 42.7304 51.8949 41.2742C53.3483 39.8181 55.3196 39 57.375 39V39Z" fill="#999999"/>
</g>
<defs>
<clipPath id="clip0_282_37549">
<rect width="124" height="132" fill="white" transform="translate(38 39)"/>
</clipPath>
</defs>
</svg>
