<svg width="40" height="40" viewBox="0 0 40 40" fill="none" xmlns="http://www.w3.org/2000/svg">
<path fill-rule="evenodd" clip-rule="evenodd" d="M14.8574 4.28613C13.7529 4.28613 12.8574 5.18157 12.8574 6.28613V7.57185C12.8574 8.12413 12.4097 8.57185 11.8574 8.57185H4.85742C3.75285 8.57185 2.85742 9.46728 2.85742 10.5718V32.2861C2.85742 33.3907 3.75285 34.2861 4.85742 34.2861H35.1431C36.2477 34.2861 37.1431 33.3907 37.1431 32.2861V10.5718C37.1431 9.46728 36.2477 8.57185 35.1431 8.57185H28.1431C27.5909 8.57185 27.1431 8.12413 27.1431 7.57185V6.28613C27.1431 5.18156 26.2477 4.28613 25.1431 4.28613H14.8574Z" fill="#D9D9D9"/>
<ellipse cx="20.0004" cy="21.4282" rx="5.71429" ry="5.71429" fill="white"/>
</svg>
