<svg width="28" height="28" viewBox="0 0 28 28" fill="none" xmlns="http://www.w3.org/2000/svg">
<rect width="28" height="28" rx="4" fill="#004EFF"/>
<path d="M14.5639 14.0627C14.5639 14.3196 14.3557 14.5278 14.0988 14.5278C13.842 14.5278 13.6338 14.3196 13.6338 14.0627C13.6338 13.8058 13.842 13.5977 14.0988 13.5977C14.3557 13.5977 14.5639 13.8058 14.5639 14.0627Z" fill="white"/>
<path d="M19.1991 12.7538C19.1991 12.7538 19.1991 12.7538 19.1991 12.7538C19.1987 12.7429 19.1979 12.732 19.1963 12.7212C19.1947 12.7094 19.1918 12.6975 19.189 12.6859C19.1863 12.6753 19.1836 12.6649 19.18 12.6545C19.1761 12.6437 19.1716 12.6333 19.1665 12.6225C19.1613 12.6114 19.1559 12.6008 19.1495 12.5901C19.1469 12.5858 19.1455 12.5811 19.1428 12.5772L17.516 10.1017C17.2779 9.73949 17.1589 9.55837 17.216 9.4136C17.2247 9.39142 17.2361 9.37036 17.2498 9.35086C17.3394 9.22365 17.5562 9.22365 17.9897 9.22365C18.1855 9.22365 18.3444 9.06492 18.3444 8.86886V7.355C18.3444 7.15895 18.1855 7.00021 17.9897 7.00021L10.2099 7C10.0139 7 9.85514 7.15873 9.85514 7.35479V8.86865C9.85514 9.0647 10.0139 9.22344 10.2099 9.22344C10.6438 9.22344 10.8607 9.22344 10.9503 9.35085C10.964 9.37022 10.9752 9.39113 10.9839 9.41316C11.0412 9.55802 10.9221 9.73931 10.6838 10.1019L9.05718 12.5769C9.0546 12.5809 9.05321 12.5852 9.05074 12.5893C9.04409 12.6004 9.03819 12.6118 9.03272 12.6236C9.028 12.6336 9.0235 12.6434 9.01996 12.6536C9.01621 12.6645 9.01331 12.6754 9.01052 12.6868C9.00773 12.6981 9.00505 12.7093 9.00344 12.7206C9.00183 12.7317 9.00108 12.7428 9.00065 12.7541C9.00022 12.7655 8.99969 12.7769 9.00022 12.7884C9.00065 12.7998 9.00237 12.8112 9.00398 12.8226C9.00559 12.8339 9.0073 12.8453 9.01009 12.8567C9.01267 12.8673 9.01621 12.8777 9.01975 12.8881C9.02404 12.9001 9.02854 12.912 9.0339 12.9234C9.03605 12.9277 9.03701 12.9324 9.03916 12.9367L12.6133 19.7822C13.0632 20.6438 13.2881 21.0747 13.5166 21.0186C13.7452 20.9625 13.7452 20.4765 13.7452 19.5045V15.6145C13.7452 15.441 13.7452 15.3543 13.7157 15.2929C13.6863 15.2314 13.5781 15.1443 13.3617 14.9701C13.0958 14.7561 12.925 14.4301 12.925 14.0626C12.925 13.415 13.452 12.8879 14.0999 12.8879C14.7476 12.8879 15.2749 13.415 15.2749 14.0626C15.2749 14.4301 15.1041 14.756 14.8384 14.97C14.6218 15.1445 14.5135 15.2317 14.4841 15.2931C14.4547 15.3545 14.4547 15.4412 14.4547 15.6147V19.5046C14.4547 20.4767 14.4547 20.9627 14.6833 21.0188C14.9118 21.0749 15.1367 20.644 15.5866 19.7823L19.1607 12.9364C19.1631 12.9319 19.1641 12.9272 19.1662 12.9227C19.1711 12.9115 19.1756 12.9001 19.1799 12.8883C19.1837 12.8777 19.187 12.8668 19.1899 12.856C19.1927 12.8448 19.1944 12.8338 19.1958 12.8226C19.1974 12.811 19.1991 12.7996 19.1998 12.7881C19.2003 12.7767 19.1998 12.7653 19.1991 12.7538C19.1991 12.7538 19.1991 12.7538 19.1991 12.7538Z" fill="white"/>
</svg>
