<svg width="24" height="24" viewBox="0 0 24 24" fill="none" xmlns="http://www.w3.org/2000/svg">
<mask id="path-1-outside-1_10_2464" maskUnits="userSpaceOnUse" x="2.80005" y="2.80005" width="18" height="18" fill="black">
<rect fill="white" x="2.80005" y="2.80005" width="18" height="18"/>
<path fill-rule="evenodd" clip-rule="evenodd" d="M11.1 4.80005H12.9V6.67471C13.7217 6.81256 14.4805 7.13599 15.1318 7.60041L16.4578 6.27438L17.7306 7.54717L16.4038 8.87402C16.866 9.52402 17.1879 10.2808 17.3254 11.1H19.2001V12.9H17.3254C17.1878 13.7203 16.8652 14.4779 16.4021 15.1284L17.7275 16.4538L16.4547 17.7266L15.1294 16.4014C14.4787 16.8649 13.7208 17.1877 12.9 17.3254V19.2001H11.1V17.3254C10.2808 17.1879 9.52402 16.866 8.87402 16.4038L7.54826 17.7295L6.27547 16.4567L7.60041 15.1318C7.13599 14.4805 6.81256 13.7217 6.67471 12.9H4.80005V11.1H6.67471C6.8124 10.2793 7.13521 9.52141 7.59874 8.87066L6.27238 7.5443L7.54517 6.27151L8.87168 7.59801C9.5222 7.13487 10.2798 6.81233 11.1 6.67471V4.80005Z"/>
</mask>
<path d="M12.9 4.80005H14.4C14.4 3.97162 13.7285 3.30005 12.9 3.30005V4.80005ZM11.1 4.80005V3.30005C10.2716 3.30005 9.60005 3.97162 9.60005 4.80005H11.1ZM12.9 6.67471H11.4C11.4 7.40736 11.9293 8.03282 12.6519 8.15404L12.9 6.67471ZM15.1318 7.60041L14.2609 8.8217C14.8575 9.24716 15.6743 9.17924 16.1924 8.66107L15.1318 7.60041ZM16.4578 6.27438L17.5185 5.21372C17.2372 4.93242 16.8556 4.77438 16.4578 4.77438C16.06 4.77438 15.6785 4.93242 15.3971 5.21372L16.4578 6.27438ZM17.7306 7.54717L18.7913 8.60784C19.377 8.02205 19.377 7.0723 18.7913 6.48651L17.7306 7.54717ZM16.4038 8.87402L15.3431 7.81336C14.8254 8.33102 14.7571 9.14673 15.1813 9.74333L16.4038 8.87402ZM17.3254 11.1L15.8461 11.3482C15.9673 12.0708 16.5927 12.6 17.3254 12.6V11.1ZM19.2001 11.1H20.7001C20.7001 10.2716 20.0285 9.60005 19.2001 9.60005V11.1ZM19.2001 12.9V14.4C20.0285 14.4 20.7001 13.7285 20.7001 12.9H19.2001ZM17.3254 12.9V11.4C16.5927 11.4 15.9673 11.9293 15.8461 12.6519L17.3254 12.9ZM16.4021 15.1284L15.1801 14.2585C14.7554 14.8551 14.8236 15.6712 15.3414 16.1891L16.4021 15.1284ZM17.7275 16.4538L18.7882 17.5145C19.374 16.9287 19.374 15.979 18.7882 15.3932L17.7275 16.4538ZM16.4547 17.7266L15.3941 18.7873C15.9798 19.3731 16.9296 19.3731 17.5154 18.7873L16.4547 17.7266ZM15.1294 16.4014L16.1901 15.3407C15.6721 14.8227 14.8558 14.7546 14.2592 15.1796L15.1294 16.4014ZM12.9 17.3254L12.6519 15.8461C11.9293 15.9673 11.4 16.5927 11.4 17.3254H12.9ZM12.9 19.2001V20.7001C13.7285 20.7001 14.4 20.0285 14.4 19.2001H12.9ZM11.1 19.2001H9.60005C9.60005 20.0285 10.2716 20.7001 11.1 20.7001V19.2001ZM11.1 17.3254H12.6C12.6 16.5927 12.0708 15.9673 11.3482 15.8461L11.1 17.3254ZM8.87402 16.4038L9.74334 15.1813C9.14674 14.7571 8.33102 14.8254 7.81336 15.3431L8.87402 16.4038ZM7.54826 17.7295L6.4876 18.7902C7.07339 19.376 8.02314 19.376 8.60892 18.7902L7.54826 17.7295ZM6.27547 16.4567L5.21481 15.3961C4.93351 15.6774 4.77547 16.0589 4.77547 16.4567C4.77547 16.8545 4.93351 17.2361 5.21481 17.5174L6.27547 16.4567ZM7.60041 15.1318L8.66107 16.1924C9.17924 15.6743 9.24716 14.8575 8.8217 14.2609L7.60041 15.1318ZM6.67471 12.9L8.15404 12.6519C8.03282 11.9293 7.40736 11.4 6.67471 11.4V12.9ZM4.80005 12.9H3.30005C3.30005 13.7285 3.97162 14.4 4.80005 14.4V12.9ZM4.80005 11.1V9.60005C3.97162 9.60005 3.30005 10.2716 3.30005 11.1H4.80005ZM6.67471 11.1V12.6C7.40736 12.6 8.03282 12.0708 8.15404 11.3482L6.67471 11.1ZM7.59874 8.87066L8.82049 9.74091C9.24546 9.14428 9.17736 8.32796 8.6594 7.81L7.59874 8.87066ZM6.27238 7.5443L5.21172 6.48364C4.93041 6.76494 4.77238 7.14647 4.77238 7.5443C4.77238 7.94212 4.93041 8.32365 5.21172 8.60496L6.27238 7.5443ZM7.54517 6.27151L8.60583 5.21085C8.02004 4.62506 7.07029 4.62506 6.48451 5.21085L7.54517 6.27151ZM8.87168 7.59801L7.81102 8.65867C8.32889 9.17654 9.14502 9.24473 9.74164 8.81996L8.87168 7.59801ZM11.1 6.67471L11.3482 8.15404C12.0708 8.03282 12.6 7.40736 12.6 6.67471H11.1ZM12.9 3.30005H11.1V6.30005H12.9V3.30005ZM14.4 6.67471V4.80005H11.4V6.67471H14.4ZM16.0027 6.37912C15.1708 5.78595 14.2001 5.37185 13.1482 5.19539L12.6519 8.15404C13.2434 8.25328 13.7902 8.48603 14.2609 8.8217L16.0027 6.37912ZM16.1924 8.66107L17.5185 7.33504L15.3971 5.21372L14.0711 6.53975L16.1924 8.66107ZM15.3971 7.33504L16.6699 8.60783L18.7913 6.48651L17.5185 5.21372L15.3971 7.33504ZM16.6699 6.48651L15.3431 7.81336L17.4644 9.93468L18.7913 8.60784L16.6699 6.48651ZM18.8047 10.8519C18.6288 9.8031 18.2166 8.83492 17.6262 8.00471L15.1813 9.74333C15.5154 10.2131 15.7471 10.7584 15.8461 11.3482L18.8047 10.8519ZM19.2001 9.60005H17.3254V12.6H19.2001V9.60005ZM20.7001 12.9V11.1H17.7001V12.9H20.7001ZM17.3254 14.4H19.2001V11.4H17.3254V14.4ZM17.624 15.9984C18.2156 15.1675 18.6286 14.1983 18.8047 13.1482L15.8461 12.6519C15.747 13.2424 15.5149 13.7883 15.1801 14.2585L17.624 15.9984ZM18.7882 15.3932L17.4627 14.0678L15.3414 16.1891L16.6668 17.5145L18.7882 15.3932ZM17.5154 18.7873L18.7882 17.5145L16.6668 15.3932L15.3941 16.666L17.5154 18.7873ZM14.0688 17.462L15.3941 18.7873L17.5154 16.666L16.1901 15.3407L14.0688 17.462ZM13.1482 18.8047C14.1988 18.6285 15.1685 18.2151 15.9997 17.6231L14.2592 15.1796C13.7889 15.5146 13.2427 15.7469 12.6519 15.8461L13.1482 18.8047ZM14.4 19.2001V17.3254H11.4V19.2001H14.4ZM11.1 20.7001H12.9V17.7001H11.1V20.7001ZM9.60005 17.3254V19.2001H12.6V17.3254H9.60005ZM8.00471 17.6262C8.83492 18.2166 9.8031 18.6288 10.8519 18.8047L11.3482 15.8461C10.7584 15.7471 10.2131 15.5154 9.74334 15.1813L8.00471 17.6262ZM7.81336 15.3431L6.4876 16.6689L8.60892 18.7902L9.93468 17.4644L7.81336 15.3431ZM8.60892 16.6689L7.33613 15.3961L5.21481 17.5174L6.4876 18.7902L8.60892 16.6689ZM7.33613 17.5174L8.66107 16.1924L6.53975 14.0711L5.21481 15.3961L7.33613 17.5174ZM5.19539 13.1482C5.37185 14.2001 5.78595 15.1708 6.37912 16.0027L8.8217 14.2609C8.48602 13.7902 8.25328 13.2434 8.15404 12.6519L5.19539 13.1482ZM4.80005 14.4H6.67471V11.4H4.80005V14.4ZM3.30005 11.1V12.9H6.30005V11.1H3.30005ZM6.67471 9.60005H4.80005V12.6H6.67471V9.60005ZM6.37699 8.00042C5.78495 8.83158 5.37164 9.80129 5.19539 10.8519L8.15404 11.3482C8.25316 10.7574 8.48547 10.2112 8.82049 9.74091L6.37699 8.00042ZM5.21172 8.60496L6.53808 9.93132L8.6594 7.81L7.33304 6.48364L5.21172 8.60496ZM6.48451 5.21085L5.21172 6.48364L7.33304 8.60496L8.60583 7.33217L6.48451 5.21085ZM9.93234 6.53735L8.60583 5.21085L6.48451 7.33217L7.81102 8.65867L9.93234 6.53735ZM10.8519 5.19539C9.80184 5.37155 8.83259 5.78452 8.00171 6.37606L9.74164 8.81996C10.2118 8.48523 10.7577 8.25311 11.3482 8.15404L10.8519 5.19539ZM9.60005 4.80005V6.67471H12.6V4.80005H9.60005Z" fill="#292929" mask="url(#path-1-outside-1_10_2464)"/>
<circle cx="12" cy="12" r="2.7" stroke="#292929" stroke-width="1.5"/>
</svg>
