<svg width="28" height="28" viewBox="0 0 28 28" fill="none" xmlns="http://www.w3.org/2000/svg">
<rect width="28" height="28" rx="4" fill="#004EFF"/>
<path d="M8.07683 12.6406H7.35894C7.1615 12.6406 7 12.8021 7 12.9996C7 13.197 7.16151 13.3585 7.35894 13.3585H8.07683C8.27427 13.3585 8.43577 13.197 8.43577 12.9996C8.43577 12.8021 8.27426 12.6406 8.07683 12.6406Z" fill="white"/>
<path d="M20.641 12.6406H19.9232C19.7257 12.6406 19.5642 12.8021 19.5642 12.9996C19.5642 13.197 19.7257 13.3585 19.9232 13.3585H20.641C20.8385 13.3585 21 13.197 21 12.9996C21 12.8021 20.8385 12.6406 20.641 12.6406Z" fill="white"/>
<path d="M13.9991 7.43577C14.1965 7.43577 14.358 7.27426 14.358 7.07683V6.35894C14.358 6.1615 14.1965 6 13.9991 6C13.8016 6 13.6401 6.16151 13.6401 6.35894V7.07683C13.6401 7.27427 13.8016 7.43577 13.9991 7.43577Z" fill="white"/>
<path d="M9.56647 9.06926C9.63821 9.141 9.72798 9.17694 9.81774 9.17694C9.90751 9.17694 9.99728 9.141 10.069 9.06926C10.2126 8.92566 10.2126 8.71032 10.069 8.5667L9.40495 7.90263C9.26134 7.75902 9.046 7.75902 8.90238 7.90263C8.75878 8.04623 8.75878 8.26157 8.90238 8.40519L9.56647 9.06926Z" fill="white"/>
<path d="M18.595 18.0976C18.6668 18.1695 18.7565 18.2053 18.8463 18.2053C18.9361 18.2053 19.0258 18.1693 19.0976 18.0976C19.2412 17.954 19.2412 17.7386 19.0976 17.595L18.4335 16.9309C18.2899 16.7873 18.0746 16.7873 17.9309 16.9309C17.7873 17.0746 17.7873 17.2899 17.9309 17.4335L18.595 18.0976Z" fill="white"/>
<path d="M19.0976 7.90263C18.954 7.75902 18.7386 7.75902 18.595 7.90263L17.9309 8.5667C17.7873 8.7103 17.7873 8.92564 17.9309 9.06926C18.0027 9.141 18.0925 9.17694 18.1822 9.17694C18.272 9.17694 18.3618 9.141 18.4335 9.06926L19.0976 8.40519C19.2412 8.26159 19.2412 8.04625 19.0976 7.90263H19.0976Z" fill="white"/>
<path d="M9.56645 16.9309L8.90238 17.595C8.75878 17.7386 8.75878 17.954 8.90238 18.0976C8.97412 18.1694 9.06389 18.2053 9.15366 18.2053C9.24343 18.2053 9.3332 18.1693 9.40493 18.0976L10.069 17.4335C10.2126 17.2899 10.2126 17.0746 10.069 16.9309C9.9254 16.7873 9.69202 16.7873 9.56644 16.9309H9.56645Z" fill="white"/>
<path d="M11.4874 18.2051C11.2899 18.2051 11.1284 18.3666 11.1284 18.564C11.1284 18.7615 11.2899 18.923 11.4874 18.923H16.513C16.7105 18.923 16.872 18.7615 16.872 18.564C16.872 18.3666 16.7104 18.2051 16.513 18.2051H11.4874Z" fill="white"/>
<path d="M16.872 19.8209C16.872 19.6234 16.7104 19.4619 16.513 19.4619H11.4874C11.2899 19.4619 11.1284 19.6234 11.1284 19.8209C11.1284 20.0183 11.2899 20.1798 11.4874 20.1798H16.513C16.7105 20.1798 16.872 20.0183 16.872 19.8209Z" fill="white"/>
<path d="M16.1538 21.0767C16.1538 20.8793 15.9923 20.7178 15.7949 20.7178H12.2051C12.0077 20.7178 11.8462 20.8793 11.8462 21.0767C11.8462 21.2741 12.0077 21.4357 12.2051 21.4357H15.7949C15.9923 21.4357 16.1538 21.2741 16.1538 21.0767Z" fill="white"/>
<path d="M9.53095 12.6585C9.42328 14.0585 9.96175 15.3329 10.8771 16.2124C11.272 16.5894 11.4873 17.1098 11.4873 17.6662H16.513C16.513 17.1098 16.7464 16.5892 17.1413 16.2124C17.9668 15.3868 18.4874 14.256 18.4874 12.9996C18.4874 10.433 16.3156 8.35084 13.713 8.53033C11.4874 8.65603 9.69252 10.4509 9.53098 12.6585H9.53095Z" fill="white"/>
</svg>
