<svg width="20" height="20" viewBox="0 0 20 20" fill="none" xmlns="http://www.w3.org/2000/svg">
<path fill-rule="evenodd" clip-rule="evenodd" d="M8.42859 2.14258C7.32402 2.14258 6.42859 3.03801 6.42859 4.14258C6.42859 4.22148 6.36463 4.28544 6.28573 4.28544H3.42859C2.32402 4.28544 1.42859 5.18087 1.42859 6.28543V15.1426C1.42859 16.2471 2.32402 17.1426 3.42859 17.1426H16.5714C17.676 17.1426 18.5714 16.2471 18.5714 15.1426V6.28544C18.5714 5.18087 17.676 4.28544 16.5714 4.28544H13.7143C13.6354 4.28544 13.5714 4.22148 13.5714 4.14258C13.5714 3.03801 12.676 2.14258 11.5714 2.14258H8.42859Z" fill="#004EFF"/>
<circle cx="9.99997" cy="10.7146" r="2.85714" fill="white"/>
</svg>
