<svg width="20" height="21" viewBox="0 0 20 21" fill="none" xmlns="http://www.w3.org/2000/svg">
<path fill-rule="evenodd" clip-rule="evenodd" d="M11.0034 0.385058C10.433 -0.128354 9.56701 -0.128352 8.99655 0.385059L0.496553 8.03506C0.180482 8.31952 0 8.72477 0 9.15V18.982C0 19.8104 0.671573 20.482 1.5 20.482H6.5C7.32843 20.482 8 19.8104 8 18.982V14.9844C8 14.1559 8.67157 13.4844 9.5 13.4844H10.5C11.3284 13.4844 12 14.1559 12 14.9844V18.982C12 19.8104 12.6716 20.482 13.5 20.482H18.5C19.3284 20.482 20 19.8104 20 18.982V9.15C20 8.72477 19.8195 8.31952 19.5034 8.03506L11.0034 0.385058Z" fill="#CDD1DA"/>
</svg>
