<svg width="200" height="200" viewBox="0 0 200 200" fill="none" xmlns="http://www.w3.org/2000/svg">
<g clip-path="url(#clip0_282_37559)">
<path d="M135.604 32H63.3962C58.7591 32 55 35.6812 55 40.2222V145.467C55 150.008 58.7591 153.689 63.3962 153.689H135.604C140.241 153.689 144 150.008 144 145.467V40.2222C144 35.6812 140.241 32 135.604 32Z" fill="#D9D9D9"/>
<path d="M105.377 50.0889H93.6226C82.4936 50.0889 73.4717 58.9238 73.4717 69.8222V71.4666C73.4717 82.3651 82.4936 91.2 93.6226 91.2H105.377C116.506 91.2 125.528 82.3651 125.528 71.4666V69.8222C125.528 58.9238 116.506 50.0889 105.377 50.0889Z" fill="white"/>
<path d="M90.2643 59.9551H88.585C87.6576 59.9551 86.9058 60.6913 86.9058 61.5995V73.1106C86.9058 74.0188 87.6576 74.7551 88.585 74.7551H90.2643C91.1917 74.7551 91.9435 74.0188 91.9435 73.1106V61.5995C91.9435 60.6913 91.1917 59.9551 90.2643 59.9551Z" fill="#999999"/>
<path d="M110.415 59.9551H108.736C107.808 59.9551 107.057 60.6913 107.057 61.5995V73.1106C107.057 74.0188 107.808 74.7551 108.736 74.7551H110.415C111.343 74.7551 112.094 74.0188 112.094 73.1106V61.5995C112.094 60.6913 111.343 59.9551 110.415 59.9551Z" fill="#999999"/>
<path d="M100.34 147.111H98.6605C96.8056 147.111 95.302 148.584 95.302 150.4V176.711C95.302 178.528 96.8056 180 98.6605 180H100.34C102.195 180 103.698 178.528 103.698 176.711V150.4C103.698 148.584 102.195 147.111 100.34 147.111Z" fill="#D9D9D9"/>
<path d="M78.5095 110.934H120.491C122.272 110.934 123.981 111.627 125.24 112.86C126.5 114.094 127.208 115.767 127.208 117.511V127.378C127.208 134.356 124.377 141.049 119.338 145.983C114.299 150.917 107.465 153.689 100.34 153.689H98.6604C91.5346 153.689 84.7006 150.917 79.6619 145.983C74.6232 141.049 71.7925 134.356 71.7925 127.378V117.511C71.7925 115.767 72.5002 114.094 73.7598 112.86C75.0195 111.627 76.728 110.934 78.5095 110.934V110.934Z" fill="white"/>
<path d="M75.5708 110.934H123.429C124.431 110.934 125.392 111.323 126.101 112.017C126.81 112.711 127.208 113.652 127.208 114.634C127.208 115.443 127.045 116.245 126.728 116.993C126.412 117.742 125.948 118.421 125.363 118.994C124.778 119.567 124.084 120.021 123.32 120.331C122.556 120.641 121.737 120.8 120.91 120.8H78.0897C76.4195 120.8 74.8178 120.151 73.6369 118.994C72.4559 117.838 71.7925 116.269 71.7925 114.634V114.634C71.7925 113.652 72.1906 112.711 72.8991 112.017C73.6077 111.323 74.5687 110.934 75.5708 110.934V110.934Z" fill="#F1F1F1"/>
<path d="M91.9435 103.533C91.9435 102.171 90.8158 101.066 89.4246 101.066C88.0335 101.066 86.9058 102.171 86.9058 103.533V113.4C86.9058 114.762 88.0335 115.866 89.4246 115.866C90.8158 115.866 91.9435 114.762 91.9435 113.4V103.533Z" fill="#999999"/>
<path d="M112.094 103.533C112.094 102.171 110.967 101.066 109.576 101.066C108.184 101.066 107.057 102.171 107.057 103.533V113.4C107.057 114.762 108.184 115.866 109.576 115.866C110.967 115.866 112.094 114.762 112.094 113.4V103.533Z" fill="#999999"/>
<path d="M99.5001 81.3337C100.891 81.3337 102.019 80.2294 102.019 78.8671C102.019 77.5048 100.891 76.4004 99.5001 76.4004C98.1089 76.4004 96.9812 77.5048 96.9812 78.8671C96.9812 80.2294 98.1089 81.3337 99.5001 81.3337Z" fill="white"/>
<path d="M99.5 79.6894C99.9637 79.6894 100.34 79.3212 100.34 78.8671C100.34 78.413 99.9637 78.0449 99.5 78.0449C99.0363 78.0449 98.6604 78.413 98.6604 78.8671C98.6604 79.3212 99.0363 79.6894 99.5 79.6894Z" stroke="#D9D9D9" stroke-width="2"/>
</g>
<defs>
<clipPath id="clip0_282_37559">
<rect width="89" height="148" fill="white" transform="translate(55 32)"/>
</clipPath>
</defs>
</svg>
