<svg width="28" height="28" viewBox="0 0 28 28" fill="none" xmlns="http://www.w3.org/2000/svg">
<rect width="28" height="28" rx="4" fill="#004EFF"/>
<path d="M18.8997 7H9.09998C7.94217 7 7 7.94217 7 9.09998V11.2H21L20.9999 9.09998C20.9999 7.94217 20.0577 7 18.8999 7H18.8997ZM16.7997 10.4998H15.3997L15.3998 9.09986H16.7998L16.7997 10.4998ZM18.8997 10.4998H17.4997L17.4998 9.09986H18.8998L18.8997 10.4998Z" fill="white"/>
<path d="M7 18.8996C7 20.0574 7.94217 20.9995 9.09998 20.9995H18.9C20.0578 20.9995 21 20.0574 21 18.8996V12.5996H7V18.8996ZM15.6051 15.1946L16.5949 14.2048L18.4898 16.0997L16.5949 17.9946L15.6051 17.0049L16.5102 16.0997L15.6051 15.1946ZM14.0358 13.7785L15.3636 14.2216L13.9636 18.4216L12.6358 17.9785L14.0358 13.7785ZM11.4052 14.2048L12.3949 15.1946L11.4899 16.0997L12.395 17.0049L11.4053 17.9946L9.51026 16.0997L11.4052 14.2048Z" fill="white"/>
</svg>
