<svg width="24" height="24" viewBox="0 0 24 24" fill="none" xmlns="http://www.w3.org/2000/svg">
<path d="M20.4427 9.94954C20.1143 9.57364 19.6492 9.34481 19.1511 9.31369C19.0289 9.306 18.9064 9.30969 18.785 9.32476V7.14487C18.7863 7.02603 18.7401 6.91153 18.6565 6.82702L14.9625 3.1408C14.9609 3.1392 14.9601 3.13776 14.9583 3.13631C14.8741 3.04907 14.7582 3 14.6371 3C14.6225 3 14.6084 3.0093 14.5943 3.01058C14.5798 3.00914 14.5656 3.01684 14.5511 3.01684L6.78984 3.017C6.31755 3.01443 5.86386 3.19966 5.52824 3.53161C5.19259 3.86373 5.00255 4.3155 5 4.78762V4.80847V19.1528C5 20.15 5.79272 20.9781 6.78988 20.9781H16.9836C17.9808 20.9781 18.785 20.15 18.785 19.1528V14.0912L20.3656 12.701V12.7012C20.737 12.3727 20.9636 11.9109 20.996 11.4161C21.0283 10.9214 20.8637 10.434 20.538 10.0601L20.4427 9.94954ZM18.1201 13.4864C18.0675 13.5168 18.0216 13.5572 17.9851 13.6056L16.9635 14.5064L14.4442 16.7121L12.7047 16.8112L13.0586 15.1358L17.2716 11.4318L18.6563 13.0136L18.1201 13.4864ZM15.103 4.53129L17.2666 6.69916H15.103V4.53129ZM17.8869 19.1532C17.8869 19.6551 17.4855 20.0804 16.9836 20.0804H6.78982C6.28785 20.0804 5.898 19.6551 5.898 19.1532V4.80841C5.89479 4.57475 5.9846 4.34942 6.14753 4.18184C6.31046 4.01426 6.53337 3.91836 6.76704 3.91515H6.78981H14.205V7.15457C14.2016 7.26859 14.2435 7.37925 14.3218 7.46232C14.3999 7.54523 14.5078 7.59382 14.6218 7.59719H14.6375H17.887V9.69543C17.8519 9.71852 17.8197 9.74562 17.7912 9.77625L17.0857 10.398V10.3982C17.0312 10.4291 16.9837 10.4711 16.9465 10.5217L12.3533 14.5597V14.5599C12.2807 14.6237 12.2307 14.7095 12.2106 14.8043L11.7045 17.2003V17.2002C11.6766 17.3326 11.7098 17.4707 11.7951 17.5757C11.8803 17.6809 12.0084 17.742 12.1439 17.742C12.1524 17.742 12.1611 17.7417 12.1696 17.7414L14.6493 17.5998L14.6492 17.5996C14.7491 17.594 14.8442 17.5551 14.9194 17.4891L17.4968 15.2296L17.8868 14.883L17.8869 19.1532ZM19.7749 12.0278L19.3304 12.4199L17.9464 10.8393L18.3876 10.4515C18.5821 10.2804 18.8366 10.1937 19.0951 10.2103C19.3538 10.2269 19.5951 10.3455 19.7661 10.5402L19.7674 10.5417L19.8641 10.6523L19.8642 10.6522C20.0338 10.8468 20.1197 11.1007 20.1029 11.3584C20.0862 11.6161 19.9683 11.8567 19.7749 12.0278L19.7749 12.0278Z" fill="black"/>
<path d="M8.03938 9.30093H11.6352C11.8831 9.30093 12.0842 9.09983 12.0842 8.85188C12.0842 8.60393 11.8831 8.40283 11.6352 8.40283H8.03938C7.79145 8.40283 7.59033 8.60393 7.59033 8.85188C7.59033 9.09983 7.79143 9.30093 8.03938 9.30093Z" fill="black"/>
<path d="M14.167 11.7754C14.167 11.6563 14.1197 11.5421 14.0355 11.4579C13.9513 11.3737 13.837 11.3264 13.718 11.3264H8.03938C7.79145 11.3264 7.59033 11.5275 7.59033 11.7755C7.59033 12.0234 7.79143 12.2245 8.03938 12.2245H13.718C13.837 12.2245 13.9513 12.1772 14.0355 12.093C14.1197 12.0088 14.167 11.8946 14.167 11.7755V11.7754Z" fill="black"/>
</svg>
