<svg width="16" height="16" viewBox="0 0 16 16" fill="none" xmlns="http://www.w3.org/2000/svg">
<path d="M7.59929 4.71966L8 5.25658L8.40071 4.71966C10.1074 2.43286 13.5 3.57203 13.5 6.43036C13.5 8.55241 12.1393 10.2675 10.679 11.4905C9.95706 12.0951 9.23263 12.5605 8.68764 12.8749C8.4157 13.0318 8.18988 13.1502 8.03332 13.2289C8.02183 13.2347 8.01072 13.2402 8 13.2456C7.98928 13.2402 7.97816 13.2347 7.96668 13.2289C7.81011 13.1502 7.5843 13.0318 7.31236 12.8749C6.76737 12.5605 6.04294 12.0951 5.32103 11.4905C3.86073 10.2676 2.5 8.55244 2.5 6.43036C2.5 3.57203 5.89262 2.43286 7.59929 4.71966Z" stroke="#999999"/>
</svg>
