<svg width="108" height="24" viewBox="0 0 108 24" fill="none" xmlns="http://www.w3.org/2000/svg">
<path d="M37.7052 21.1851C36.5482 21.1851 35.5113 20.9973 34.5947 20.6216C33.6781 20.246 32.9418 19.69 32.3858 18.9537C31.8449 18.2174 31.5594 17.3308 31.5293 16.294H35.6316C35.6917 16.88 35.8945 17.3308 36.2401 17.6464C36.5857 17.9469 37.0365 18.0972 37.5925 18.0972C38.1635 18.0972 38.6143 17.9694 38.9449 17.714C39.2755 17.4435 39.4408 17.0754 39.4408 16.6095C39.4408 16.2188 39.3056 15.8958 39.0351 15.6403C38.7796 15.3849 38.4566 15.1745 38.0659 15.0092C37.6902 14.8439 37.1492 14.6561 36.443 14.4457C35.4212 14.1301 34.5872 13.8146 33.9411 13.499C33.2949 13.1835 32.7389 12.7176 32.2731 12.1016C31.8073 11.4855 31.5744 10.6815 31.5744 9.68979C31.5744 8.21718 32.1078 7.06765 33.1747 6.24118C34.2416 5.3997 35.6316 4.97895 37.3446 4.97895C39.0877 4.97895 40.4927 5.3997 41.5595 6.24118C42.6264 7.06765 43.1974 8.22469 43.2726 9.71233H39.1027C39.0726 9.20142 38.8848 8.80322 38.5392 8.51771C38.1936 8.21718 37.7503 8.06692 37.2093 8.06692C36.7435 8.06692 36.3679 8.19464 36.0824 8.45009C35.7968 8.69052 35.6541 9.04364 35.6541 9.50947C35.6541 10.0204 35.8945 10.4186 36.3754 10.7041C36.8562 10.9896 37.6076 11.2976 38.6294 11.6282C39.6512 11.9738 40.4776 12.3044 41.1087 12.62C41.7549 12.9355 42.3109 13.3938 42.7767 13.9949C43.2425 14.596 43.4754 15.3698 43.4754 16.3165C43.4754 17.2181 43.2425 18.0371 42.7767 18.7734C42.3259 19.5097 41.6647 20.0957 40.7932 20.5315C39.9216 20.9672 38.8923 21.1851 37.7052 21.1851Z" fill="#292929"/>
<path d="M47.7858 7.14278C47.1096 7.14278 46.5537 6.94743 46.1179 6.55674C45.6971 6.15102 45.4868 5.65515 45.4868 5.06911C45.4868 4.46805 45.6971 3.97217 46.1179 3.58148C46.5537 3.17576 47.1096 2.9729 47.7858 2.9729C48.447 2.9729 48.988 3.17576 49.4087 3.58148C49.8445 3.97217 50.0624 4.46805 50.0624 5.06911C50.0624 5.65515 49.8445 6.15102 49.4087 6.55674C48.988 6.94743 48.447 7.14278 47.7858 7.14278ZM49.7017 8.45009V21.0273H45.8474V8.45009H49.7017Z" fill="#292929"/>
<path d="M51.7286 14.7162C51.7286 13.4239 51.969 12.2894 52.4498 11.3127C52.9457 10.3359 53.6144 9.5846 54.4559 9.05867C55.2974 8.53274 56.2365 8.26977 57.2734 8.26977C58.0998 8.26977 58.8512 8.44258 59.5274 8.78819C60.2186 9.1338 60.7595 9.59963 61.1502 10.1857V4.34783H65.0045V21.0273H61.1502V19.2242C60.7896 19.8252 60.2712 20.3061 59.595 20.6667C58.9338 21.0273 58.1599 21.2077 57.2734 21.2077C56.2365 21.2077 55.2974 20.9447 54.4559 20.4188C53.6144 19.8778 52.9457 19.119 52.4498 18.1422C51.969 17.1505 51.7286 16.0085 51.7286 14.7162ZM61.1502 14.7387C61.1502 13.777 60.8797 13.0182 60.3388 12.4622C59.8129 11.9062 59.1667 11.6282 58.4004 11.6282C57.634 11.6282 56.9803 11.9062 56.4394 12.4622C55.9135 13.0032 55.6505 13.7545 55.6505 14.7162C55.6505 15.6779 55.9135 16.4442 56.4394 17.0153C56.9803 17.5712 57.634 17.8492 58.4004 17.8492C59.1667 17.8492 59.8129 17.5712 60.3388 17.0153C60.8797 16.4593 61.1502 15.7004 61.1502 14.7387Z" fill="#292929"/>
<path d="M79.649 14.5359C79.649 14.8965 79.6264 15.2722 79.5813 15.6629H70.8584C70.9185 16.4442 71.1664 17.0453 71.6022 17.466C72.053 17.8718 72.6015 18.0746 73.2476 18.0746C74.2093 18.0746 74.878 17.6689 75.2537 16.8575H79.3559C79.1456 17.6839 78.7624 18.4277 78.2064 19.0889C77.6654 19.7501 76.9817 20.2685 76.1553 20.6442C75.3288 21.0198 74.4047 21.2077 73.3829 21.2077C72.1507 21.2077 71.0537 20.9447 70.092 20.4188C69.1303 19.8928 68.379 19.1415 67.8381 18.1648C67.2971 17.1881 67.0266 16.046 67.0266 14.7387C67.0266 13.4314 67.2896 12.2894 67.8155 11.3127C68.3565 10.3359 69.1078 9.5846 70.0695 9.05867C71.0312 8.53274 72.1357 8.26977 73.3829 8.26977C74.6 8.26977 75.6819 8.52523 76.6286 9.03613C77.5753 9.54703 78.3116 10.2758 78.8375 11.2225C79.3785 12.1692 79.649 13.2736 79.649 14.5359ZM75.7045 13.5216C75.7045 12.8604 75.4791 12.3345 75.0283 11.9438C74.5775 11.5531 74.014 11.3577 73.3378 11.3577C72.6916 11.3577 72.1432 11.5456 71.6924 11.9212C71.2566 12.2969 70.9861 12.8303 70.8809 13.5216H75.7045Z" fill="#292929"/>
<path d="M83.4855 21.2077C82.8093 21.2077 82.2533 21.0123 81.8175 20.6216C81.3968 20.2159 81.1864 19.72 81.1864 19.134C81.1864 18.5329 81.3968 18.0295 81.8175 17.6238C82.2533 17.2181 82.8093 17.0153 83.4855 17.0153C84.1467 17.0153 84.6876 17.2181 85.1084 17.6238C85.5441 18.0295 85.762 18.5329 85.762 19.134C85.762 19.72 85.5441 20.2159 85.1084 20.6216C84.6876 21.0123 84.1467 21.2077 83.4855 21.2077Z" fill="#292929"/>
<path d="M91.898 5.20435V21.0273H88.0437V5.20435H91.898Z" fill="#292929"/>
<path d="M106.074 5.20435V8.29231H101.881V21.0273H98.0271V8.29231H93.8346V5.20435H106.074Z" fill="#292929"/>
<rect opacity="0.8" width="8.95023" height="22.1625" rx="4.47511" transform="matrix(-0.707107 -0.707107 -0.707107 0.707107 29.1748 7.32886)" fill="#135DF4"/>
<rect opacity="0.6" x="1" y="10.4768" width="8.95022" height="17.6988" rx="4.47511" transform="rotate(-45 1 10.4768)" fill="#0CD6FA"/>
<rect width="4.50192" height="8.96451" rx="2.25096" transform="matrix(-0.707107 -0.707107 -0.707107 0.707107 21.2625 15.2693)" fill="#22B2F8"/>
<rect width="4.50192" height="9.45345" rx="2.25096" transform="matrix(-0.707107 -0.707107 -0.707107 0.707107 20.9172 9.26831)" fill="#427DF6"/>
</svg>
